<svg width="36" height="36" viewBox="0 0 36 36" fill="none" xmlns="http://www.w3.org/2000/svg">
<g clip-path="url(#clip0_1_888)">
<path d="M26.9986 0.00749036L22.3302 0C17.0855 0 13.6961 3.4774 13.6961 8.85959V12.9445H9.00224C8.59664 12.9445 8.26819 13.2733 8.26819 13.6789V19.5974C8.26819 20.003 8.59702 20.3314 9.00224 20.3314H13.6961V35.2657C13.6961 35.6713 14.0245 35.9998 14.4301 35.9998H20.5542C20.9599 35.9998 21.2883 35.6709 21.2883 35.2657V20.3314H26.7765C27.1821 20.3314 27.5105 20.003 27.5105 19.5974L27.5128 13.6789C27.5128 13.4841 27.4353 13.2976 27.2978 13.1598C27.1604 13.022 26.9731 12.9445 26.7784 12.9445H21.2883V9.48167C21.2883 7.81731 21.6849 6.9724 23.853 6.9724L26.9978 6.97127C27.4031 6.97127 27.7315 6.64245 27.7315 6.23722V0.741545C27.7315 0.336691 27.4034 0.00823939 26.9986 0.00749036Z" fill="black"/>
</g>
<defs>
<clipPath id="clip0_1_888">
<rect width="36.0001" height="35.9998" fill="white"/>
</clipPath>
</defs>
</svg>
