<svg width="840" height="93" viewBox="0 0 840 93" fill="none" xmlns="http://www.w3.org/2000/svg">
<mask id="path-1-inside-1_5065_3483" fill="white">
<path d="M0 53C0 41.9543 8.95431 33 20 33H820C831.046 33 840 41.9543 840 53V93H0V53Z"/>
</mask>
<path d="M0 53C0 41.9543 8.95431 33 20 33H820C831.046 33 840 41.9543 840 53V93H0V53Z" fill="#D9D9D9"/>
<path d="M-1 53C-1 41.402 8.40202 32 20 32H820C831.598 32 841 41.402 841 53H839C839 42.5066 830.493 34 820 34H20C9.50659 34 1 42.5066 1 53H-1ZM840 93H0H840ZM-1 93V53C-1 41.402 8.40202 32 20 32V34C9.50659 34 1 42.5066 1 53V93H-1ZM820 32C831.598 32 841 41.402 841 53V93H839V53C839 42.5066 830.493 34 820 34V32Z" fill="black" mask="url(#path-1-inside-1_5065_3483)"/>
<path fill-rule="evenodd" clip-rule="evenodd" d="M61 65.6833C62.0231 65.891 63.0821 66 64.1665 66C72.911 66 79.9998 58.9112 79.9998 50.1667V33H73.6668V50.1667C73.6668 57.8268 68.2272 64.2163 61 65.6833Z" fill="black" fill-opacity="0.12"/>
<rect x="40.5" y="0.5" width="34" height="65" rx="17" fill="#666666" stroke="black"/>
<path fill-rule="evenodd" clip-rule="evenodd" d="M55 65.8228C55.8165 65.9396 56.6512 66 57.5 66C67.165 66 75 58.165 75 48.5V17.5C75 7.83502 67.165 0 57.5 0C56.6512 0 55.8165 0.0604299 55 0.177222C63.4807 1.3903 70 8.68382 70 17.5V48.5C70 57.3162 63.4807 64.6097 55 65.8228Z" fill="black" fill-opacity="0.1"/>
<path fill-rule="evenodd" clip-rule="evenodd" d="M181 65.6833C182.023 65.891 183.082 66 184.167 66C192.911 66 200 58.9112 200 50.1667V33H193.667V50.1667C193.667 57.8268 188.227 64.2163 181 65.6833Z" fill="black" fill-opacity="0.12"/>
<rect x="160.5" y="0.5" width="34" height="65" rx="17" fill="#666666" stroke="black"/>
<path fill-rule="evenodd" clip-rule="evenodd" d="M175 65.8228C175.817 65.9396 176.651 66 177.5 66C187.165 66 195 58.165 195 48.5V17.5C195 7.83502 187.165 0 177.5 0C176.651 0 175.817 0.0604299 175 0.177222C183.481 1.3903 190 8.68382 190 17.5V48.5C190 57.3162 183.481 64.6097 175 65.8228Z" fill="black" fill-opacity="0.1"/>
<path fill-rule="evenodd" clip-rule="evenodd" d="M301 65.6833C302.023 65.891 303.082 66 304.167 66C312.911 66 320 58.9112 320 50.1667V33H313.667V50.1667C313.667 57.8268 308.227 64.2163 301 65.6833Z" fill="black" fill-opacity="0.12"/>
<rect x="280.5" y="0.5" width="34" height="65" rx="17" fill="#666666" stroke="black"/>
<path fill-rule="evenodd" clip-rule="evenodd" d="M295 65.8228C295.817 65.9396 296.651 66 297.5 66C307.165 66 315 58.165 315 48.5V17.5C315 7.83502 307.165 0 297.5 0C296.651 0 295.817 0.0604299 295 0.177222C303.481 1.3903 310 8.68382 310 17.5V48.5C310 57.3162 303.481 64.6097 295 65.8228Z" fill="black" fill-opacity="0.1"/>
<path fill-rule="evenodd" clip-rule="evenodd" d="M421 65.6833C422.023 65.891 423.082 66 424.167 66C432.911 66 440 58.9112 440 50.1667V33H433.667V50.1667C433.667 57.8268 428.227 64.2163 421 65.6833Z" fill="black" fill-opacity="0.12"/>
<rect x="400.5" y="0.5" width="34" height="65" rx="17" fill="#666666" stroke="black"/>
<path fill-rule="evenodd" clip-rule="evenodd" d="M415 65.8228C415.817 65.9396 416.651 66 417.5 66C427.165 66 435 58.165 435 48.5V17.5C435 7.83502 427.165 0 417.5 0C416.651 0 415.817 0.0604299 415 0.177222C423.481 1.3903 430 8.68382 430 17.5V48.5C430 57.3162 423.481 64.6097 415 65.8228Z" fill="black" fill-opacity="0.1"/>
<path fill-rule="evenodd" clip-rule="evenodd" d="M541 65.6833C542.023 65.891 543.082 66 544.167 66C552.911 66 560 58.9112 560 50.1667V33H553.667V50.1667C553.667 57.8268 548.227 64.2163 541 65.6833Z" fill="black" fill-opacity="0.12"/>
<rect x="520.5" y="0.5" width="34" height="65" rx="17" fill="#666666" stroke="black"/>
<path fill-rule="evenodd" clip-rule="evenodd" d="M535 65.8228C535.817 65.9396 536.651 66 537.5 66C547.165 66 555 58.165 555 48.5V17.5C555 7.83502 547.165 0 537.5 0C536.651 0 535.817 0.0604299 535 0.177222C543.481 1.3903 550 8.68382 550 17.5V48.5C550 57.3162 543.481 64.6097 535 65.8228Z" fill="black" fill-opacity="0.1"/>
<path fill-rule="evenodd" clip-rule="evenodd" d="M661 65.6833C662.023 65.891 663.082 66 664.167 66C672.911 66 680 58.9112 680 50.1667V33H673.667V50.1667C673.667 57.8268 668.227 64.2163 661 65.6833Z" fill="black" fill-opacity="0.12"/>
<rect x="640.5" y="0.5" width="34" height="65" rx="17" fill="#666666" stroke="black"/>
<path fill-rule="evenodd" clip-rule="evenodd" d="M655 65.8228C655.817 65.9396 656.651 66 657.5 66C667.165 66 675 58.165 675 48.5V17.5C675 7.83502 667.165 0 657.5 0C656.651 0 655.817 0.0604299 655 0.177222C663.481 1.3903 670 8.68382 670 17.5V48.5C670 57.3162 663.481 64.6097 655 65.8228Z" fill="black" fill-opacity="0.1"/>
<path fill-rule="evenodd" clip-rule="evenodd" d="M781 65.6833C782.023 65.891 783.082 66 784.167 66C792.911 66 800 58.9112 800 50.1667V33H793.667V50.1667C793.667 57.8268 788.227 64.2163 781 65.6833Z" fill="black" fill-opacity="0.12"/>
<rect x="760.5" y="0.5" width="34" height="65" rx="17" fill="#666666" stroke="black"/>
<path fill-rule="evenodd" clip-rule="evenodd" d="M775 65.8228C775.817 65.9396 776.651 66 777.5 66C787.165 66 795 58.165 795 48.5V17.5C795 7.83502 787.165 0 777.5 0C776.651 0 775.817 0.0604299 775 0.177222C783.481 1.3903 790 8.68382 790 17.5V48.5C790 57.3162 783.481 64.6097 775 65.8228Z" fill="black" fill-opacity="0.1"/>
</svg>
